<?xml version="1.0" encoding="UTF-8" standalone="no"?>
<svg width="16px" height="16px" viewBox="0 0 16 16" version="1.1" xmlns="http://www.w3.org/2000/svg" xmlns:xlink="http://www.w3.org/1999/xlink" xmlns:sketch="http://www.bohemiancoding.com/sketch/ns">
    <title>Slice 1</title>
    <description>Created with Sketch (http://www.bohemiancoding.com/sketch)</description>
    <defs></defs>
    <g id="Page 1" stroke="none" stroke-width="1" fill="none" fill-rule="evenodd">
        <g id="Layer_1" transform="translate(-1.000000, -1.000000)" fill="#666666">
            <path d="M9,0.996 C4.587,0.996 0.996,4.587 0.996,9 C0.996,13.414 4.587,17.004 9,17.004 C13.414,17.004 17.004,13.414 17.004,9 C17.004,4.587 13.414,0.996 9,0.996 L9,0.996 Z M9,15.824 C5.237,15.824 2.175,12.763 2.175,9 C2.175,5.237 5.237,2.175 9,2.175 C12.764,2.175 15.824,5.237 15.824,9 C15.824,12.763 12.764,15.824 9,15.824 L9,15.824 Z M9,15.824" id="Shape"></path>
            <g id="Group" transform="translate(6.000000, 6.000000)">
                <path d="M5.765,5.765 C5.532,5.998 5.154,5.996 4.922,5.765 L0.235,1.078 C0.002,0.846 0.002,0.469 0.235,0.236 L0.235,0.236 C0.468,0.003 0.845,0.003 1.077,0.236 L5.764,4.922 C5.996,5.153 5.998,5.531 5.765,5.765 L5.765,5.765 L5.765,5.765 Z M5.765,5.765" id="Shape"></path>
                <path d="M0.235,5.765 C0.002,5.532 0.004,5.154 0.235,4.922 L4.922,0.236 C5.154,0.003 5.531,0.003 5.765,0.236 L5.765,0.236 C5.998,0.469 5.998,0.846 5.765,1.078 L1.078,5.765 C0.847,5.996 0.469,5.998 0.235,5.765 L0.235,5.765 L0.235,5.765 Z M0.235,5.765" id="Shape"></path>
            </g>
        </g>
    </g>
</svg>