<?xml version="1.0" encoding="UTF-8" standalone="no"?>
<svg width="18px" height="18px" viewBox="0 0 18 18" version="1.1" xmlns="http://www.w3.org/2000/svg" xmlns:xlink="http://www.w3.org/1999/xlink" xmlns:sketch="http://www.bohemiancoding.com/sketch/ns">
    <title>Slice 1</title>
    <description>Created with Sketch (http://www.bohemiancoding.com/sketch)</description>
    <defs></defs>
    <g id="Page 1" stroke="none" stroke-width="1" fill="none" fill-rule="evenodd">
        <g id="Layer_1" fill="#0088CC">
            <path d="M9,0.917 C4.544,0.917 0.918,4.543 0.918,9 C0.918,13.457 4.544,17.082 9,17.082 C13.457,17.082 17.082,13.457 17.082,9 C17.082,4.543 13.457,0.917 9,0.917 L9,0.917 Z M9,15.891 C5.2,15.891 2.108,12.801 2.108,9 C2.108,5.2 5.2,2.108 9,2.108 C12.801,2.108 15.891,5.199 15.891,9 C15.891,12.801 12.801,15.891 9,15.891 L9,15.891 Z M9,15.891" id="Shape"></path>
            <path d="M12.063,6.032 L8.166,10.68 L5.922,8.222 C5.701,7.978 5.323,7.961 5.08,8.183 C4.837,8.405 4.82,8.781 5.042,9.024 L7.744,11.985 C7.857,12.108 8.017,12.179 8.184,12.179 L8.197,12.179 C8.368,12.175 8.53,12.097 8.641,11.966 L12.975,6.796 C13.187,6.544 13.154,6.168 12.902,5.957 C12.649,5.746 12.273,5.781 12.063,6.032 L12.063,6.032 Z M12.063,6.032" id="Shape"></path>
        </g>
    </g>
</svg>